# Blender v2.90.0 OBJ File: ''
# www.blender.org
o oar
v -1.500000 0.070000 0.350000
v -1.662466 0.070000 0.240685
v -1.662466 -0.070000 0.240685
v -1.719435 0.070000 0.000000
v -1.719435 -0.070000 -0.000000
v -1.662466 0.070000 -0.240684
v -1.662466 -0.070000 -0.240684
v -0.590000 -0.030000 -0.050000
v -0.590000 -0.050000 0.050000
v -0.700000 -0.050000 -0.000000
v -0.700000 -0.050000 -0.250000
v -1.500000 0.070000 -0.350000
v -1.500000 -0.070000 -0.350000
v -1.422878 -0.063072 -0.000000
v -0.700000 0.050000 0.250000
v -0.700000 0.050000 0.000000
v -1.422878 0.063072 0.000000
v -1.500000 -0.070000 0.350000
v -0.700000 -0.050000 0.250000
v -0.700000 0.050000 -0.250000
v -0.590000 0.050000 0.050000
v -0.590000 0.070000 -0.050000
v 2.000000 0.050000 0.050000
v 2.000000 -0.050000 -0.050000
v 2.000000 -0.050000 0.050000
v 2.000000 0.050000 -0.050000
vt 0.806056 0.432140
vt 0.806056 0.379335
vt 0.843808 0.379335
vt 0.806056 0.312639
vt 0.843808 0.312639
vt 0.881839 0.379335
vt 0.844086 0.379335
vt 0.844086 0.312639
vt 0.319793 0.295690
vt 0.292431 0.297931
vt 0.303147 0.267106
vt 0.370916 0.267147
vt 0.320428 0.302675
vt 0.303782 0.274091
vt 0.881839 0.432140
vt 0.844086 0.432140
vt 0.284394 0.079772
vt 0.376291 0.049650
vt 0.048263 0.719478
vt 0.115448 0.725897
vt 0.096168 0.920224
vt 0.002139 0.932049
vt 0.811449 0.649547
vt 0.843808 0.432140
vt 0.849479 0.649547
vt 0.236600 0.280547
vt 0.194406 0.068905
vt 0.854873 0.711098
vt 0.876445 0.649547
vt 0.103445 0.703334
vt 0.130808 0.705560
vt 0.114178 0.734153
vt 0.104715 0.695078
vt 0.182584 0.732804
vt 0.188080 0.950295
vt 0.811449 0.711098
vt 0.838415 0.649547
vt 0.881839 0.312639
vt 0.088267 0.996368
vt 0.025172 0.978165
vt 0.154395 0.990986
vt 0.274849 0.003339
vt 0.342583 0.008978
vt 0.213366 0.021870
vt 0.293066 0.304916
vt 0.881839 0.711098
vt 0.132078 0.697304
vt 0.838415 0.711098
vt 0.161245 0.000139
vt 0.376291 0.997672
vt 0.349460 0.999850
vt 0.564069 0.850529
vt 0.564069 0.823563
vt 0.591035 0.823563
vt 0.564069 0.125139
vt 0.591035 0.125139
vt 0.653813 0.823793
vt 0.653813 0.125347
vt 0.680778 0.125139
vt 0.188080 0.002301
vt 0.591035 0.850529
vt 0.680778 0.823585
vn -0.1711 0.6450 0.7448
vn -0.6321 0.6399 0.4370
vn -0.6321 -0.6399 0.4370
vn -0.7456 0.6663 -0.0000
vn -0.7456 -0.6663 -0.0000
vn -0.6321 0.6399 -0.4370
vn -0.6321 -0.6399 -0.4370
vn 0.3385 -0.7674 -0.5445
vn 0.3078 -0.8732 0.3780
vn 0.0541 -0.9982 -0.0269
vn 0.4550 -0.6162 -0.6429
vn -0.1711 0.6450 -0.7448
vn -0.1711 -0.6450 -0.7447
vn 0.0206 -0.9998 -0.0000
vn 0.4482 0.6129 0.6508
vn -0.0360 0.9990 0.0270
vn 0.0206 0.9998 0.0000
vn -0.1711 -0.6450 0.7448
vn 0.4482 -0.6129 0.6508
vn 0.4416 0.6091 -0.6588
vn 0.2446 0.7990 0.5494
vn 0.2054 0.8993 -0.3861
vn 0.5793 0.5750 0.5778
vn 0.5773 -0.5774 -0.5774
vn 0.5774 -0.5774 0.5774
vn 0.5794 0.5749 -0.5778
s 1
f 1/1/1 2/2/2 3/3/3
f 4/4/4 5/5/5 3/3/3
f 6/6/6 7/7/7 5/8/5
f 8/9/8 9/10/9 10/11/10
f 11/12/11 8/13/8 10/14/10
f 6/6/6 12/15/12 13/16/13
f 11/12/11 10/14/10 14/17/14
f 13/18/13 11/12/11 14/17/14
f 15/19/15 16/20/16 17/21/17
f 1/22/1 15/19/15 17/21/17
f 15/23/15 1/1/1 18/24/18
f 11/25/11 13/16/13 12/15/12
f 19/26/19 18/27/18 14/17/14
f 14/17/14 10/14/10 19/26/19
f 8/28/8 11/25/11 20/29/20
f 21/30/21 22/31/22 16/32/16
f 15/19/15 21/33/21 16/20/16
f 20/34/20 12/35/12 17/21/17
f 17/21/17 16/20/16 20/34/20
f 21/36/21 15/23/15 19/37/19
f 1/1/1 3/3/3 18/24/18
f 4/4/4 3/3/3 2/2/2
f 6/6/6 5/8/5 4/38/4
f 4/39/4 2/40/2 17/21/17
f 6/41/6 4/39/4 17/21/17
f 5/42/5 7/43/7 14/17/14
f 3/44/3 5/42/5 14/17/14
f 9/45/9 19/26/19 10/14/10
f 6/6/6 13/16/13 7/7/7
f 14/17/14 7/43/7 13/18/13
f 17/21/17 2/40/2 1/22/1
f 15/23/15 18/24/18 19/37/19
f 11/25/11 12/15/12 20/29/20
f 18/27/18 3/44/3 14/17/14
f 8/28/8 20/29/20 22/46/22
f 22/47/22 20/34/20 16/20/16
f 12/35/12 6/41/6 17/21/17
f 21/36/21 19/37/19 9/48/9
f 22/47/22 21/33/21 23/49/23
f 24/50/24 25/51/25 9/45/9
f 26/52/26 23/53/23 25/54/25
f 23/53/23 21/55/21 9/56/9
f 22/57/22 26/58/26 24/59/24
f 22/47/22 23/49/23 26/60/26
f 24/50/24 9/45/9 8/13/8
f 26/52/26 25/54/25 24/61/24
f 23/53/23 9/56/9 25/54/25
f 22/57/22 24/59/24 8/62/8
